<svg width="256" height="256" viewBox="0 0 256 256" fill="none" xmlns="http://www.w3.org/2000/svg">
<rect width="256" height="256" fill="white"/>
<rect width="256" height="256" fill="url(#paint0_linear)"/>
<rect x="44" y="45" width="182" height="182" rx="12" fill="#444444"/>
<g filter="url(#filter0_d)">
<rect x="30" y="29" width="182" height="182" rx="12" fill="url(#paint1_linear)"/>
</g>
<circle cx="192" cy="45" r="8" fill="#4776E6"/>
<circle cx="169" cy="45" r="8" fill="#8E54E9"/>
<g opacity="0.2">
<rect x="44" y="68" width="80" height="16" fill="#444444"/>
<rect x="44" y="157" width="40" height="16" fill="#444444"/>
<rect x="44" y="93" width="140" height="16" fill="#444444"/>
<rect x="44" y="117" width="140" height="32" fill="#444444"/>
</g>
<g opacity="0.2">
<path d="M182 173V185L180 183L178 181V179L176 177L174 175V185L176 193L178 197V187L180 189L182 191V201L184 203L186 205V175L184 173H182Z" fill="#444444"/>
<path d="M198 177L196 179V181L194 183L192 185V173H190L188 175V205L190 203L192 201V191L194 189L196 187V197L198 193L200 185V175L198 177Z" fill="#444444"/>
</g>
<defs>
<filter id="filter0_d" x="28" y="27" width="194" height="194" filterUnits="userSpaceOnUse" color-interpolation-filters="sRGB">
<feFlood flood-opacity="0" result="BackgroundImageFix"/>
<feColorMatrix in="SourceAlpha" type="matrix" values="0 0 0 0 0 0 0 0 0 0 0 0 0 0 0 0 0 0 127 0" result="hardAlpha"/>
<feOffset dx="4" dy="4"/>
<feGaussianBlur stdDeviation="3"/>
<feComposite in2="hardAlpha" operator="out"/>
<feColorMatrix type="matrix" values="0 0 0 0 0 0 0 0 0 0 0 0 0 0 0 0 0 0 0.2 0"/>
<feBlend mode="normal" in2="BackgroundImageFix" result="effect1_dropShadow"/>
<feBlend mode="normal" in="SourceGraphic" in2="effect1_dropShadow" result="shape"/>
</filter>
<linearGradient id="paint0_linear" x1="256" y1="128" x2="0" y2="128" gradientUnits="userSpaceOnUse">
<stop stop-color="#4776E6"/>
<stop offset="1" stop-color="#8E54E9"/>
</linearGradient>
<linearGradient id="paint1_linear" x1="121" y1="29" x2="121" y2="211" gradientUnits="userSpaceOnUse">
<stop stop-color="white"/>
<stop offset="1" stop-color="#F8F8F8"/>
</linearGradient>
</defs>
</svg>
